<?xml version="1.0" encoding="UTF-8"?>
<svg width="200px" height="120px" viewBox="0 0 200 120" version="1.1" xmlns="http://www.w3.org/2000/svg" xmlns:xlink="http://www.w3.org/1999/xlink">
    <!-- Generator: Sketch 39.1 (31720) - http://www.bohemiancoding.com/sketch -->
    <title>Web Workshop Logo</title>
    <desc>Created with Sketch.</desc>
    <defs></defs>
    <g id="Symbols" stroke="none" stroke-width="1" fill="none" fill-rule="evenodd">
        <g id="logo">
            <path d="M3.53582402,46.5640814 L45.0460127,5.05389275 C47.7820243,2.31788109 52.2129528,2.31285823 54.9539873,5.05389275 L96.464176,46.5640814 C98.4169577,48.5168631 100,52.342471 100,55.099434 L100,120.099905 L6.99206025,120.099905 C3.130452,120.099905 0,116.958523 0,113.099716 L0,55.099434 C0,52.3382706 1.57898171,48.5209237 3.53582402,46.5640814 Z" id="Combined-Shape" fill="#FFFFFF" opacity="0.8"></path>
            <path d="M53.535824,46.5640814 L95.0460127,5.05389275 C97.7820243,2.31788109 102.212953,2.31285823 104.953987,5.05389275 L146.464176,46.5640814 C148.416958,48.5168631 150,52.342471 150,55.099434 L150,120.099905 L50,120.099905 L50,55.099434 C50,52.3382706 51.5789817,48.5209237 53.535824,46.5640814 Z" id="Combined-Shape" fill="#FFFFFF" opacity="0.6"></path>
            <path d="M103.535824,46.5640814 L145.046013,5.05389275 C147.782024,2.31788109 152.212953,2.31285823 154.953987,5.05389275 L196.464176,46.5640814 C198.416958,48.5168631 200,52.342471 200,55.099434 L200,113.099716 C200,116.965814 196.869846,120.099905 193.00794,120.099905 L100,120.099905 L100,55.099434 C100,52.3382706 101.578982,48.5209237 103.535824,46.5640814 Z" id="Combined-Shape" fill="#FFFFFF" opacity="0.4"></path>
            <path d="M200,80 L200,113.004195 C200,116.867871 196.869846,120 193.00794,120 L100,120 L100,80 L200,80 Z" id="Combined-Shape" fill="#FFFFFF" opacity="0.6"></path>
        </g>
    </g>
</svg>
